<svg xmlns="http://www.w3.org/2000/svg" width="77" height="97" viewBox="0 0 77 97">
    <path fill="#FFD800" fill-rule="evenodd" d="M2.696 66.976c-.713 7.418.745 13.31 4.355 17.546 4.622 5.428 12.969 8.425 24.844 8.93-7.151-4.622-14.585-11.557-14.29-22.085.014-.476.294-.903.725-1.106a1.266 1.266 0 0 1 1.314.153l.416.327a21.659 21.659 0 0 1 .417-10.082c.152-.544.649-.92 1.214-.92h.002c.565 0 1.062.379 1.211.924.99 3.58 2.689 6.139 5.168 7.767-.142-3.971 1.159-7.377 2.426-10.69 1.747-4.572 3.554-9.299 1.872-15.961a1.26 1.26 0 0 1 1.604-1.51c9.227 2.932 8.352 10.311 7.58 16.822-.352 2.969-.69 5.812-.167 8.19 2.768-3.823 3.699-5.164 3.3-9.434a1.26 1.26 0 0 1 2.22-.926l.586.696c2.62 3.096 4.804 5.677 4.634 10.832 2.083-2.542 2.302-3.193 2.826-9.16a1.261 1.261 0 0 1 2.359-.498c3.241 5.869 2.258 14.188.133 20.608.117-.045.233-.09.35-.137 1.574-.619 3.201-1.259 4.174-2.335a1.261 1.261 0 0 1 2.067.292c2.064 4.236-1.785 9.823-12.08 17.45 7.107-.694 12.355-3.083 15.967-7.254 5.24-6.052 6.981-15.917 5.306-30.118l-4.678 3.38a1.26 1.26 0 0 1-1.915-.572c-3.19-8.355-4.424-15.43-3.814-22.027-3.218 1.982-5.044 4.114-5.692 6.608a1.259 1.259 0 0 1-2.338.263C51.8 37.167 51.18 28.963 52.91 17.94c-2.72 2.333-4.81 4.678-6.348 7.115a1.263 1.263 0 0 1-1.453.526 1.258 1.258 0 0 1-.87-1.279c.596-9.333-.351-15.934-2.893-20.047-1.033 3.367-3.512 6.22-6.104 9.203-3.703 4.267-7.535 8.677-7.233 14.977a1.26 1.26 0 0 1-2.2.899c-2.296-2.575-3.52-5.395-3.693-8.542-5.585 6.905-8.041 14.772-7.5 23.943a1.26 1.26 0 0 1-1.851 1.186c-1.984-1.061-3.38-2.719-4.174-4.947-3.672 6.075-3.658 15.113.023 27.5a1.259 1.259 0 0 1-1.663 1.534c-1.634-.634-3.07-1.662-4.255-3.032m32.932 29.072c-14.647 0-24.903-3.326-30.496-9.893C.494 80.71-1.01 72.995.66 63.225a1.26 1.26 0 0 1 2.38-.327c.614 1.295 1.382 2.362 2.296 3.195C1.912 52.889 2.871 43.413 8.24 37.18a1.26 1.26 0 0 1 2.205.668c.219 1.771.74 3.178 1.583 4.25.065-9.834 3.654-18.496 10.691-25.784a1.26 1.26 0 0 1 2.144 1.107c-.507 2.715-.223 5.153.872 7.376.97-5.349 4.46-9.367 7.606-12.99 3.012-3.47 5.86-6.746 5.985-10.59a1.26 1.26 0 0 1 2.15-.849c3.85 3.851 5.61 10.253 5.448 19.972 1.877-2.198 4.205-4.337 7.04-6.47a1.26 1.26 0 0 1 1.995 1.24c-1.941 10.267-1.95 18.335-.034 24.048 1.942-3.187 5.3-5.199 7.895-6.519a1.258 1.258 0 0 1 1.814 1.33c-1.08 6.464-.194 13.393 2.784 21.696l5.054-3.652a1.26 1.26 0 0 1 1.987.85c2.206 16.09.365 27.277-5.632 34.2-4.731 5.464-12.164 8.268-22.09 8.339h-.01a1.262 1.262 0 0 1-.716-2.297c11.201-7.742 14.599-12.322 14.993-15.012-1.053.635-2.213 1.091-3.286 1.513-1.074.422-2.087.82-2.86 1.329a1.26 1.26 0 0 1-1.852-1.546c2.038-4.792 3.347-10.958 2.699-16.137-.523 2.163-1.362 3.268-3.162 5.44-.624.753-1.376 1.66-2.29 2.84a1.26 1.26 0 0 1-2.224-1.05c1.331-5.874.307-8.47-1.834-11.259-.355 2.823-1.673 4.644-3.863 7.668-.391.542-.816 1.128-1.272 1.772-.25.354-.661.545-1.1.529a1.262 1.262 0 0 1-1.033-.652c-1.864-3.4-1.361-7.642-.875-11.745.671-5.658 1.26-10.628-3.76-13.27.954 6.231-.838 10.921-2.44 15.114-1.458 3.813-2.835 7.413-2.036 11.766a1.259 1.259 0 0 1-1.716 1.393c-2.977-1.214-5.285-3.284-6.9-6.174-.128 2.634.295 5.299 1.274 8.055a1.26 1.26 0 0 1-1.968 1.41l-1.268-1c.864 7.36 6.322 13.644 16.946 19.596a1.26 1.26 0 0 1-.604 2.36l-.952.003"/>
</svg>
