<svg xmlns="http://www.w3.org/2000/svg" width="125" height="90" viewBox="0 0 125 90">
    <g fill="none" fill-rule="evenodd">
        <path stroke="#167FFC" stroke-width="3" d="M120.01 48.89c-4.012-14.905-10.966-29.424-13.003-33.485-.08-.224-.303-1.036-.443-1.625-.827-3.27-1.371-5.137-2.944-5.726L88.138 2.389c-1.936-.711-4.174-.427-5.847.69-1.774 1.137-3.79 2.274-4.415 2.497H48.02c-.727-.223-3.146-1.462-4.92-2.456a6.54 6.54 0 0 0-5.866-.712L21.75 8.054c-1.572.59-2.117 2.436-2.923 5.645-.162.609-.363 1.462-.444 1.644-.907 1.707-8.93 17.18-13.406 33.669C-.344 68.608 1.47 81.42 10.4 87.106c2.056 1.3 4.918 1.076 6.794-.548l18.405-15.9a12.333 12.333 0 0 1 8.044-2.985h38.082c2.944 0 5.806 1.056 8.044 2.985l18.406 15.9a5.79 5.79 0 0 0 3.81 1.442 5.464 5.464 0 0 0 3.024-.913c8.569-5.808 10.262-18.662 5-38.197z"/>
        <path fill="#167FFC" d="M75.5 43c-4.687 0-8.5 3.813-8.5 8.5 0 4.688 3.813 8.5 8.5 8.5 4.687 0 8.5-3.812 8.5-8.5 0-4.687-3.813-8.5-8.5-8.5m0 2.356c3.38 0 6.144 2.765 6.144 6.144a6.148 6.148 0 0 1-6.144 6.144c-3.379 0-6.144-2.764-6.144-6.144 0-3.38 2.765-6.144 6.144-6.144M33.5 21c-4.687 0-8.5 3.812-8.5 8.5 0 4.687 3.813 8.5 8.5 8.5 4.687 0 8.5-3.813 8.5-8.5 0-4.688-3.813-8.5-8.5-8.5m0 2.356c3.379 0 6.144 2.765 6.144 6.144a6.15 6.15 0 0 1-6.144 6.144c-3.38 0-6.144-2.765-6.144-6.144 0-3.38 2.764-6.144 6.144-6.144M83 24c-2.2 0-4 1.8-4 4s1.8 4 4 4c2.213 0 4-1.8 4-4s-1.8-4-4-4m0 2.239c.972 0 1.761.79 1.761 1.76 0 .972-.79 1.762-1.761 1.762-.97 0-1.761-.79-1.761-1.761 0-.971.79-1.761 1.761-1.761M100 24c-2.2 0-4 1.8-4 4s1.8 4 4 4c2.213 0 4-1.8 4-4s-1.8-4-4-4m0 2.239c.97 0 1.761.79 1.761 1.76 0 .972-.79 1.762-1.761 1.762-.972 0-1.761-.79-1.761-1.761 0-.971.79-1.761 1.761-1.761M91 16c-2.2 0-4 1.8-4 4s1.8 4 4 4c2.213 0 4-1.8 4-4s-1.8-4-4-4m0 2.239c.97 0 1.761.79 1.761 1.76 0 .972-.79 1.762-1.761 1.762-.97 0-1.761-.79-1.761-1.761 0-.97.79-1.761 1.761-1.761M91 33c-2.2 0-4 1.8-4 4s1.8 4 4 4c2.213 0 4-1.8 4-4s-1.8-4-4-4m0 2.239c.97 0 1.761.79 1.761 1.76 0 .972-.79 1.762-1.761 1.762-.97 0-1.761-.79-1.761-1.761 0-.971.79-1.761 1.761-1.761M53.304 42H45.478v4.696H40V54.522h5.478V60h7.826v-5.478H58v-7.826h-4.696V42zm-2.347 2.348v4.695h4.695v3.13h-4.695v5.48h-3.13v-5.48h-5.48v-3.13h5.48v-4.695h3.13z"/>
        <path stroke="#167FFC" stroke-width="3" d="M71 7c0 4.418-3.806 8-8.5 8-4.695 0-8.5-3.582-8.5-8"/>
    </g>
</svg>
