<svg xmlns="http://www.w3.org/2000/svg" width="78" height="92" viewBox="0 0 78 92">
    <g fill="#147DFB" fill-rule="nonzero">
        <path d="M13.097 17.637V45.35a5.035 5.035 0 0 0 5.038 5.04h41.574a5.034 5.034 0 0 0 5.038-5.04V17.637a5.035 5.035 0 0 0-5.038-5.04H18.135a5.034 5.034 0 0 0-5.038 5.04zm-2.52 0a7.553 7.553 0 0 1 7.558-7.56h41.574a7.554 7.554 0 0 1 7.557 7.56V45.35a7.553 7.553 0 0 1-7.557 7.56H18.135a7.554 7.554 0 0 1-7.557-7.56V17.637zM.5 7.565A7.557 7.557 0 0 1 8.06 0h61.723a7.56 7.56 0 0 1 7.561 7.565v76.831a7.557 7.557 0 0 1-7.56 7.565H8.06A7.56 7.56 0 0 1 .5 84.396V7.565zm2.52 0v76.831a5.04 5.04 0 0 0 5.04 5.046h61.723a5.038 5.038 0 0 0 5.042-5.046V7.565a5.04 5.04 0 0 0-5.042-5.046H8.061a5.038 5.038 0 0 0-5.042 5.046z"/>
        <path d="M31.994 78.734c0 1.04.848 1.89 1.89 1.89h28.973c1.041 0 1.89-.849 1.89-1.89s-.848-1.89-1.89-1.89H33.883c-1.04 0-1.89.848-1.89 1.89zm-2.52 0a4.412 4.412 0 0 1 4.41-4.41h28.973a4.412 4.412 0 0 1 4.41 4.41 4.412 4.412 0 0 1-4.41 4.409H33.883a4.412 4.412 0 0 1-4.409-4.41zM13.097 78.734c0 1.04.849 1.89 1.89 1.89 1.04 0 1.89-.849 1.89-1.89s-.849-1.89-1.89-1.89c-1.04 0-1.89.848-1.89 1.89zm-2.52 0a4.412 4.412 0 0 1 4.41-4.41 4.412 4.412 0 0 1 4.41 4.41 4.412 4.412 0 0 1-4.41 4.409 4.412 4.412 0 0 1-4.41-4.41zM33.253 26.455a6.299 6.299 0 0 0-12.597 0h2.52a3.78 3.78 0 0 1 7.558 0h2.52zM57.188 26.455a6.299 6.299 0 1 0-12.597 0h2.52a3.78 3.78 0 0 1 7.558 0h2.52zM31.994 37.792c0 3.514 3.132 6.299 6.928 6.299s6.929-2.785 6.929-6.299h-2.52c0 2.052-1.943 3.78-4.409 3.78-2.466 0-4.409-1.728-4.409-3.78h-2.52z"/>
    </g>
</svg>
